PathFileType	4	(X/Y/Z)	D:\Share\Shared_Data\Ergonomics\Sit To Stand Pertubation\S0\Perturbed STS.trc
DataRate	CameraRate	NumFrames	NumMarkers	Units	OrigDataRate	OrigDataStartFrame	OrigNumFrames	
100	100	16	18	m	100	7980	211
Frame#	Time	R_Heel			R_ASIS			R_Pelvis			V_Sacral			L_Pelvis			L_ASIS			Clavical			R_Acromium			L_Acromium			Sternum			Torso			R_Thigh_Med			R_Thigh_Lat			R_Thigh			R_Shank_Med			R_Shank_Lat			R_Shank			R_Toe			
		X1	Y1	Z1	X2	Y2	Z2	X3	Y3	Z3	X4	Y4	Z4	X5	Y5	Z5	X6	Y6	Z6	X7	Y7	Z7	X8	Y8	Z8	X9	Y9	Z9	X10	Y10	Z10	X11	Y11	Z11	X12	Y12	Z12	X13	Y13	Z13	X14	Y14	Z14	X15	Y15	Z15	X16	Y16	Z16	X17	Y17	Z17	X18	Y18	Z18	

7980	36.14	0.18564256	0.040849922	0.13152928	0.38400238	1.0062288	0.14701106	0.25767355	1.0202664	0.18501569	0.14130995	1.0127474	-0.044527222	0.28967096	1.0021436	-0.2213969	0.40297623	0.98655011	-0.17139511	0.37807346	1.4459614	-0.021498898	0.28742014	1.5023921	0.11916627	0.28565219	1.50737	-0.17510097	0.41771988	1.3556501	-0.037462109	0.38628165	1.3986263	-0.1450752	0.30478717	0.49529742	0.028909693	0.30533585	0.52113916	0.15473759	0.39259354	0.64696576	0.087597366	0.28197205	0.101375	0.084779266	0.2238203	0.086300926	0.1728824	0.25393721	0.32034088	0.18298529	0.41257971	0.046707897	0.12516048
7981	36.15	0.18567943	0.040902374	0.13148677	0.3847453	1.006265	0.14706802	0.25837979	1.0201223	0.18503464	0.14205661	1.012419	-0.04446381	0.29037799	1.0020217	-0.2213602	0.40370212	0.98660114	-0.17136615	0.37793301	1.4459652	-0.021359201	0.28720123	1.5022175	0.11934753	0.28536963	1.507178	-0.17499002	0.41768716	1.3557091	-0.037326893	0.38619843	1.3986251	-0.14493219	0.30540955	0.49526562	0.028906986	0.30598431	0.52108881	0.15474187	0.39337512	0.64691498	0.087613976	0.28201105	0.10134254	0.084709938	0.223888	0.086340912	0.17283578	0.25432631	0.32034006	0.18294713	0.41260431	0.046614151	0.12519985
7982	36.16	0.1857184	0.040960438	0.13143671	0.38546066	1.0062894	0.14711125	0.25907059	1.0199846	0.18505707	0.1427702	1.0121121	-0.044396122	0.2910473	1.0019083	-0.22132054	0.40439288	0.98665381	-0.17134973	0.3778078	1.4459642	-0.021226896	0.28700327	1.5020525	0.11951605	0.28511813	1.5070028	-0.17488336	0.41767197	1.3557629	-0.037200794	0.38612885	1.3986266	-0.14479906	0.30600446	0.49523291	0.028888775	0.30662646	0.52103802	0.15473741	0.39413809	0.64687115	0.087603706	0.28205173	0.10131039	0.084634872	0.22395915	0.08638398	0.1727852	0.25472632	0.32033917	0.18289795	0.41263287	0.046521011	0.12523511
7983	36.17	0.18575978	0.041023811	0.13137886	0.38614578	1.0063038	0.14714267	0.25973969	1.0198555	0.18508325	0.14345064	1.0118227	-0.044325241	0.29167828	1.0017986	-0.22127571	0.40505038	0.98670715	-0.17134364	0.37769516	1.4459587	-0.021100504	0.28682318	1.5018982	0.11966936	0.28490118	1.5068466	-0.17478207	0.4176731	1.355812	-0.037083328	0.38607452	1.3986302	-0.14467525	0.30657892	0.4951994	0.028857822	0.30726709	0.52098578	0.15472568	0.39488434	0.64683777	0.087568848	0.28209583	0.10127868	0.084554428	0.224033	0.086429863	0.17273045	0.25513509	0.32033923	0.18283925	0.41266528	0.046429577	0.12526591
7984	36.18	0.18580325	0.041091499	0.13131384	0.38679785	1.0063104	0.14716512	0.26038055	1.019736	0.18511282	0.14409732	1.0115472	-0.044252594	0.29226956	1.0016888	-0.22122446	0.40567609	0.98675989	-0.17134448	0.37759509	1.4459495	-0.020978378	0.28665906	1.5017546	0.11980633	0.28472244	1.5067098	-0.17468645	0.4176889	1.355856	-0.036973232	0.38603796	1.3986362	-0.1445592	0.30714093	0.49516531	0.028817997	0.30790909	0.52093073	0.15470866	0.39561487	0.64681537	0.087513962	0.2821445	0.10124756	0.084469215	0.22410814	0.086478081	0.17267174	0.25554929	0.32034012	0.1827733	0.41270099	0.046341293	0.1252916
7985	36.19	0.18584798	0.041162083	0.13124313	0.38741422	1.0063112	0.14718178	0.26098782	1.0196271	0.18514558	0.14470912	1.0112833	-0.044179512	0.29282092	1.001577	-0.22116719	0.40627112	0.98681006	-0.17134834	0.37751062	1.4459368	-0.020859264	0.28651093	1.5016222	0.11992738	0.28458548	1.5065924	-0.17459625	0.41771811	1.3558937	-0.03686887	0.38602203	1.3986429	-0.1444489	0.30769785	0.49513098	0.028773682	0.30855295	0.52087158	0.15468872	0.39632913	0.64680164	0.087444893	0.28219803	0.10121708	0.084380226	0.22418323	0.086527985	0.17260954	0.25596547	0.32034097	0.18270323	0.4127395	0.046257652	0.12531155
7986	36.2	0.18589297	0.041233971	0.13116872	0.38799225	1.0063082	0.14719565	0.26155841	1.0195292	0.18518208	0.14528484	1.01103	-0.044106869	0.29333444	1.0014636	-0.22110655	0.40683594	0.98685583	-0.17135138	0.37744754	1.4459224	-0.020742886	0.28638037	1.5015004	0.12003419	0.28449261	1.5064928	-0.1745108	0.41776022	1.3559246	-0.036768669	0.38602908	1.3986494	-0.14434239	0.30825415	0.49509726	0.028729164	0.30919666	0.52080859	0.15466791	0.39702545	0.64679401	0.087367867	0.28225595	0.10118729	0.084288994	0.22425729	0.086578918	0.17254483	0.25638034	0.32034055	0.18263264	0.4127803	0.046179901	0.12532587
7987	36.21	0.18593736	0.041305794	0.13109282	0.38852988	1.0063032	0.14720938	0.26209192	1.0194432	0.18522314	0.14582394	1.0107878	-0.044034912	0.29381366	1.0013503	-0.22104684	0.40737045	0.98689539	-0.17135069	0.37741315	1.4459073	-0.020630016	0.28627069	1.5013885	0.12012899	0.28444482	1.5064094	-0.17442928	0.41781573	1.3559481	-0.036671341	0.38606076	1.3986543	-0.14423853	0.30881088	0.49506531	0.028688181	0.30983563	0.52074261	0.15464807	0.39770135	0.64679022	0.087288918	0.28231726	0.10115866	0.084197548	0.22432974	0.086630234	0.17247911	0.25679047	0.32033841	0.18256528	0.41282263	0.046108948	0.12533554
7988	36.22	0.18598068	0.041376759	0.13101743	0.38902557	1.0062976	0.14722501	0.26258884	1.0193688	0.18526939	0.14632713	1.0105587	-0.043963593	0.29426138	1.0012401	-0.22099258	0.40787408	0.9869278	-0.17134464	0.37741269	1.4458921	-0.020521999	0.28618567	1.501286	0.12021408	0.28444165	1.5063401	-0.17435081	0.4178858	1.3559637	-0.036576126	0.38611734	1.3986565	-0.14413684	0.30936533	0.49503641	0.028653486	0.31046338	0.52067572	0.15463045	0.39835355	0.64678882	0.087213882	0.2823812	0.10113213	0.084108131	0.22440013	0.086681076	0.17241428	0.25719199	0.32033511	0.1825043	0.41286551	0.046045139	0.12534226
7989	36.23	0.18602272	0.041446522	0.13094409	0.3894791	1.0062921	0.14724408	0.26304959	1.0193058	0.18532037	0.14679596	1.0103452	-0.043893085	0.29467792	1.0011353	-0.22094662	0.40834625	0.9869527	-0.17133295	0.37744781	1.4458762	-0.020420277	0.28612943	1.5011923	0.12029148	0.28448096	1.5062836	-0.17427451	0.41797122	1.3559711	-0.036482872	0.3861976	1.3986545	-0.14403754	0.30991138	0.49501157	0.028626455	0.31107156	0.52061084	0.15461606	0.39897876	0.64678967	0.087148445	0.28244727	0.10110887	0.084022667	0.22446796	0.086730522	0.17235246	0.2575813	0.32033215	0.18245163	0.41290793	0.04598814	0.12534778
7990	36.24	0.18606339	0.041514797	0.13087357	0.38989142	1.006288	0.14726776	0.26347482	1.0192532	0.18537473	0.14723181	1.0101502	-0.043824043	0.29505963	1.0010365	-0.22090903	0.40878656	0.98697046	-0.17131616	0.37751712	1.4458593	-0.020326103	0.28610529	1.5011061	0.12036298	0.28455923	1.5062384	-0.17419942	0.41807175	1.3559703	-0.036391937	0.38629883	1.3986478	-0.14394098	0.31044006	0.49499164	0.028606962	0.3116514	0.52055054	0.15460568	0.39957339	0.6467923	0.087097694	0.28251462	0.10108978	0.083942528	0.22453264	0.086777817	0.1722952	0.25795456	0.32033084	0.18240768	0.4129487	0.045936935	0.12535339
7991	36.25	0.18610243	0.041581013	0.13080615	0.39026425	1.0062856	0.14729684	0.26386597	1.0192108	0.185431	0.14763547	1.0099765	-0.043757179	0.29539932	1.0009431	-0.2208765	0.40919479	0.98698157	-0.17129536	0.37761737	1.4458397	-0.020240189	0.28611566	1.5010271	0.12043015	0.28467136	1.5062037	-0.17412457	0.41818585	1.3559611	-0.036303936	0.38641724	1.3986351	-0.14384758	0.31094156	0.49497693	0.028593885	0.31219427	0.52049707	0.15460007	0.40013245	0.64679614	0.087065598	0.28258188	0.10107515	0.083868202	0.22459317	0.086822472	0.17224284	0.25830801	0.32033224	0.18237157	0.41298682	0.045890144	0.12535983
7992	36.26	0.18613934	0.041644146	0.13074202	0.39060001	1.0062856	0.14733194	0.26422519	1.0191784	0.18548851	0.14800699	1.009827	-0.043692856	0.29568652	1.0008517	-0.2208429	0.40957089	0.98698657	-0.17127135	0.37774359	1.4458168	-0.02016227	0.2861615	1.5009546	0.12049438	0.28481161	1.5061783	-0.17404904	0.41831116	1.3559427	-0.036219517	0.38654825	1.3986166	-0.14375749	0.3114071	0.49496747	0.028585915	0.31269312	0.52045117	0.15459959	0.40065021	0.64680054	0.087054489	0.28264716	0.10106465	0.0837994	0.22464853	0.086864372	0.17219475	0.25863736	0.3203367	0.18234177	0.41302127	0.045846489	0.12536716
7993	36.27	0.18617342	0.04170269	0.13068152	0.39090109	1.0062879	0.14737306	0.26455438	1.0191561	0.18554707	0.14834651	1.0097041	-0.043631062	0.29590863	1.0007581	-0.22079997	0.40991525	0.98698584	-0.17124449	0.37788962	1.4457887	-0.020090866	0.28624234	1.5008882	0.12055696	0.28497382	1.5061608	-0.17397206	0.41844458	1.355915	-0.036139225	0.38668753	1.3985917	-0.14367061	0.31183084	0.49496262	0.028582052	0.31314316	0.52041211	0.15460432	0.40112213	0.64680383	0.087064819	0.28270871	0.10105741	0.083735199	0.22469777	0.086903496	0.1721498	0.25893872	0.3203436	0.18231657	0.41305161	0.045805122	0.12537493
7994	36.28	0.18620374	0.04175491	0.1306254	0.39116965	1.0062921	0.14741992	0.26485519	1.019143	0.18560635	0.14865428	1.0096091	-0.043571606	0.29605478	1.0006572	-0.22073926	0.41022815	0.98697949	-0.17121472	0.37804916	1.445755	-0.020023615	0.2863558	1.5008274	0.12061897	0.28515204	1.5061492	-0.17389325	0.41858331	1.3558787	-0.036063427	0.38683176	1.3985608	-0.14358662	0.31220984	0.49496106	0.028581755	0.31354282	0.52037817	0.15461433	0.40154617	0.64680505	0.087094994	0.28276468	0.10105226	0.083674675	0.22474019	0.086939651	0.17210715	0.25920975	0.32035159	0.18229482	0.41307776	0.04576577	0.12538227
7995	36.29	0.18622937	0.041799339	0.13057477	0.39140765	1.0062966	0.14747169	0.26512878	1.0191368	0.1856655	0.14893021	1.0095426	-0.043514198	0.29612109	1.0005464	-0.22065512	0.41051028	0.98696747	-0.17118211	0.37821811	1.4457157	-0.019958006	0.28649857	1.5007722	0.12068135	0.28534122	1.5061416	-0.17381259	0.41872485	1.355834	-0.035992352	0.386979	1.3985249	-0.14350526	0.31254349	0.49496066	0.028584927	0.31389368	0.52034796	0.15462953	0.40192264	0.64680243	0.087141655	0.28281363	0.10104802	0.083617416	0.22477567	0.086972336	0.17206665	0.25945047	0.32035907	0.18227612	0.41310001	0.045728603	0.12538832
